<?xml version="1.0" standalone="no"?>
<!DOCTYPE svg PUBLIC "-//W3C//DTD SVG 20010904//EN"
 "http://www.w3.org/TR/2001/REC-SVG-20010904/DTD/svg10.dtd">
<svg version="1.0" xmlns="http://www.w3.org/2000/svg"
 width="1040.000000pt" height="1040.000000pt" viewBox="0 0 1040.000000 1040.000000"
 preserveAspectRatio="xMidYMid meet">
<metadata>
Created by potrace 1.14, written by Peter Selinger 2001-2017
</metadata>
<g transform="translate(0.000000,1040.000000) scale(0.100000,-0.100000)"
fill="#000000" stroke="none">
<path d="M866 5635 l0 -3466 -60 5 c-34 4 -72 8 -86 10 -24 4 -86 11 -195 22
-27 3 -59 7 -71 9 l-20 4 0 2993 c1 1646 0 3000 -2 3008 -3 13 -33 15 -210 13
-114 -1 -210 -2 -214 -2 -5 -1 -8 -1463 -8 -3249 l0 -3248 2008 -1 c1104 0
2027 -3 2052 -6 84 -11 176 -31 215 -47 111 -44 190 -85 309 -160 292 -183
387 -216 626 -214 174 1 226 12 385 85 28 13 69 36 91 51 23 15 45 28 50 28 4
0 21 10 38 23 26 20 164 103 230 139 23 12 144 58 169 64 9 2 26 6 37 9 48 12
68 15 149 21 47 4 976 8 2064 8 l1977 0 0 3248 c0 2591 -3 3248 -12 3249 -7 0
-102 2 -211 2 -168 2 -200 0 -206 -13 -4 -8 -6 -1360 -6 -3003 1 -2093 -2
-2990 -9 -2995 -6 -3 -18 -7 -26 -8 -96 -13 -279 -35 -331 -39 l-65 -6 1 3448
c0 1896 -1 3456 -4 3466 -3 17 -14 17 -150 11 -80 -3 -177 -8 -216 -9 -111 -5
-346 -21 -455 -30 -25 -3 -76 -7 -115 -10 -90 -7 -149 -13 -205 -20 -25 -3
-70 -7 -100 -10 -30 -3 -71 -7 -90 -10 -44 -6 -127 -16 -160 -20 -14 -1 -43
-5 -65 -9 -45 -6 -118 -16 -155 -21 -14 -2 -27 -4 -30 -5 -3 -1 -8 -2 -13 -1
-4 1 -26 -3 -50 -8 -23 -5 -62 -12 -87 -15 -25 -3 -56 -8 -70 -11 -14 -3 -38
-7 -55 -10 -16 -2 -40 -6 -51 -9 -12 -2 -37 -7 -55 -10 -19 -3 -68 -12 -109
-21 -41 -9 -86 -19 -100 -21 -21 -4 -41 -8 -90 -19 -3 -1 -18 -4 -35 -8 -16
-4 -40 -10 -52 -12 -37 -8 -241 -58 -283 -70 -8 -2 -51 -14 -95 -25 -44 -12
-89 -25 -100 -30 -25 -10 -225 -73 -245 -76 -8 -2 -23 -7 -35 -12 -11 -6 -49
-20 -85 -32 -68 -24 -288 -109 -343 -134 -18 -8 -61 -27 -97 -42 -36 -16 -68
-32 -71 -37 -3 -5 -9 -8 -13 -7 -10 3 -220 -103 -224 -112 -2 -5 -8 -8 -14 -8
-5 0 -57 -28 -115 -62 -87 -50 -108 -59 -122 -50 -9 7 -23 15 -31 19 -8 4 -44
24 -79 46 -77 47 -374 197 -390 197 -6 0 -11 5 -11 12 0 6 -3 9 -6 5 -4 -3
-25 3 -48 15 -22 11 -42 20 -43 20 -2 -1 -40 15 -85 34 -101 43 -425 163 -458
169 -3 1 -50 15 -105 32 -151 48 -244 75 -305 89 -30 7 -82 19 -115 28 -141
36 -364 85 -412 91 -11 2 -29 6 -40 9 -19 6 -71 15 -115 21 -15 2 -35 6 -45 9
-10 3 -36 7 -58 11 -22 3 -65 10 -95 15 -70 12 -118 20 -161 25 -19 2 -45 6
-59 9 -34 6 -105 15 -165 22 -27 2 -61 7 -75 9 -14 3 -50 7 -80 10 -30 3 -71
8 -90 11 -19 3 -62 8 -95 10 -33 2 -80 6 -105 9 -45 6 -63 8 -215 19 -44 4
-105 8 -135 11 -30 2 -97 7 -149 10 -52 3 -98 8 -103 11 -4 3 -8 0 -8 -6 0 -6
-5 -8 -12 -4 -7 5 -35 9 -63 10 -27 1 -120 5 -205 9 l-155 7 1 -3467z m984
2540 c47 -4 99 -8 115 -11 17 -2 58 -6 93 -9 35 -4 72 -8 83 -10 11 -2 50 -7
87 -10 37 -3 74 -8 82 -10 8 -2 40 -7 70 -10 30 -3 62 -8 70 -10 8 -2 39 -7
69 -10 30 -4 63 -9 75 -11 23 -5 50 -9 116 -19 62 -10 78 -13 130 -24 25 -6
59 -12 75 -15 17 -2 55 -10 85 -16 30 -7 64 -14 75 -16 16 -3 94 -20 175 -39
46 -10 187 -48 200 -52 19 -8 31 -11 55 -15 11 -2 25 -6 30 -9 6 -4 24 -9 40
-13 17 -4 66 -18 110 -33 44 -14 85 -26 90 -27 6 -1 24 -7 40 -13 58 -22 70
-26 80 -29 18 -4 197 -74 285 -111 149 -62 445 -211 546 -275 l40 -26 -1
-2513 c-1 -1383 -3 -2515 -3 -2517 -1 -1 -20 7 -42 18 -22 11 -40 18 -40 16 0
-3 -32 8 -71 24 -39 16 -85 34 -102 39 -18 5 -86 28 -152 51 -66 23 -127 43
-135 45 -8 2 -35 10 -60 18 -41 14 -188 59 -200 62 -3 0 -30 7 -60 15 -30 8
-58 13 -62 12 -5 -1 -8 2 -8 6 0 4 -8 8 -17 9 -10 1 -47 8 -83 17 -35 9 -71
18 -80 20 -8 2 -22 6 -30 9 -8 3 -49 13 -90 21 -41 9 -115 25 -165 36 -49 11
-110 23 -135 26 -25 3 -49 8 -53 11 -4 2 -22 6 -40 9 -18 2 -54 8 -82 14 -88
18 -99 20 -149 25 -27 3 -52 8 -57 11 -5 3 -30 7 -57 9 -26 2 -57 6 -69 9 -11
2 -43 7 -70 11 -26 4 -59 9 -73 11 -14 2 -47 6 -75 9 -27 3 -81 9 -120 14 -38
6 -88 11 -110 12 -22 2 -44 5 -49 7 -4 3 -38 6 -75 8 -36 2 -82 6 -101 10 -19
3 -55 8 -80 9 -150 10 -225 17 -230 21 -10 10 -7 5199 3 5211 5 7 12 11 16 9
3 -2 44 -7 91 -11z m6811 6 c7 -1 6 -5208 -2 -5215 -3 -4 -42 -9 -85 -11 -85
-5 -160 -11 -239 -20 -27 -3 -66 -7 -87 -9 -20 -2 -41 -7 -47 -10 -6 -4 -11
-2 -11 4 0 6 -4 9 -8 6 -10 -6 -47 -12 -122 -21 -30 -3 -66 -8 -80 -10 -14 -3
-50 -7 -80 -9 -30 -3 -66 -8 -80 -10 -31 -6 -87 -14 -148 -22 -62 -9 -71 -10
-112 -18 -45 -8 -86 -15 -130 -22 -35 -5 -187 -33 -225 -40 -11 -2 -33 -7 -50
-10 -16 -4 -37 -8 -45 -9 -8 -1 -26 -5 -40 -8 -14 -4 -36 -9 -50 -11 -14 -3
-34 -7 -45 -10 -11 -2 -51 -11 -90 -20 -103 -23 -270 -64 -350 -87 -38 -10
-88 -24 -110 -30 -22 -6 -47 -14 -55 -17 -8 -3 -21 -6 -28 -8 -34 -7 -233 -72
-387 -126 -93 -33 -178 -61 -189 -63 -10 -2 -23 -8 -30 -13 -12 -10 -75 -32
-91 -32 -7 0 -10 843 -11 2507 l-1 2507 25 23 c14 13 29 23 34 23 6 0 22 9 36
19 65 46 405 211 557 271 44 17 94 37 110 44 28 13 134 49 145 51 3 0 10 3 15
7 6 3 30 12 55 19 55 15 52 14 70 22 44 17 126 41 134 39 4 -2 14 3 22 9 8 6
14 9 14 6 0 -3 21 2 48 10 26 8 83 24 127 35 44 11 87 21 95 24 14 4 172 40
215 49 71 16 233 48 245 50 19 2 99 16 125 22 11 2 39 6 62 8 24 2 47 6 52 10
5 3 31 7 58 10 26 3 64 7 83 10 61 9 253 34 300 40 25 3 63 7 85 10 35 4 92 9
213 20 18 1 35 4 37 6 3 4 40 4 66 0z"/>
</g>
</svg>
